<svg xmlns="http://www.w3.org/2000/svg" viewBox="0 0 1600 900" preserveAspectRatio="xMidYMid slice">
  <defs>
    <linearGradient id="bg" x1="0" y1="0" x2="1" y2="1">
      <stop offset="0" stop-color="#221606"/>
      <stop offset="1" stop-color="#3a2a0c"/>
    </linearGradient>
  </defs>
  <rect width="1600" height="900" fill="url(#bg)"/>
  <circle cx="250" cy="200" r="340" fill="#fbbf24" opacity="0.10"/>
  <rect x="90" y="90" width="920" height="720" rx="18" fill="#ffffff" opacity="0.05"/>
  <rect x="150" y="150" width="260" height="18" rx="9" fill="#fbbf24" opacity="0.85"/>
  <g stroke="#ffffff" stroke-opacity="0.15" stroke-width="2">
    <line x1="150" y1="230" x2="950" y2="230"/>
    <line x1="150" y1="330" x2="950" y2="330"/>
    <line x1="150" y1="430" x2="950" y2="430"/>
    <line x1="150" y1="530" x2="950" y2="530"/>
    <line x1="150" y1="630" x2="950" y2="630"/>
  </g>
  <rect x="150" y="255" width="26" height="26" rx="7" fill="#fbbf24" opacity="0.9"/>
  <path d="M156 268 l7 7 12-14" fill="none" stroke="#221606" stroke-width="3.5" stroke-linecap="round" stroke-linejoin="round"/>
  <rect x="200" y="262" width="420" height="12" rx="6" fill="#ffffff" opacity="0.35"/>
  <rect x="150" y="355" width="26" height="26" rx="7" fill="none" stroke="#fbbf24" stroke-opacity="0.7" stroke-width="2.5"/>
  <rect x="200" y="362" width="360" height="12" rx="6" fill="#ffffff" opacity="0.25"/>
  <rect x="150" y="455" width="26" height="26" rx="7" fill="none" stroke="#fbbf24" stroke-opacity="0.7" stroke-width="2.5"/>
  <rect x="200" y="462" width="440" height="12" rx="6" fill="#ffffff" opacity="0.25"/>
  <rect x="150" y="555" width="26" height="26" rx="7" fill="none" stroke="#ffffff" stroke-opacity="0.3" stroke-width="2.5"/>
  <rect x="200" y="562" width="320" height="12" rx="6" fill="#ffffff" opacity="0.18"/>
  <rect x="1060" y="90" width="450" height="345" rx="18" fill="#fbbf24" opacity="0.12"/>
  <rect x="1060" y="465" width="450" height="345" rx="18" fill="#ffffff" opacity="0.05"/>
  <text x="1110" y="180" font-family="monospace" font-size="30" fill="#fcd34d" letter-spacing="8">DAYKIT</text>
  <rect x="1110" y="220" width="300" height="10" rx="5" fill="#ffffff" opacity="0.22"/>
  <circle cx="1285" cy="640" r="90" fill="none" stroke="#fbbf24" stroke-opacity="0.5" stroke-width="6"/>
  <path d="M1285 640 a90 90 0 0 1 63 -86" fill="none" stroke="#fcd34d" stroke-width="10" stroke-linecap="round"/>
</svg>
