<svg xmlns="http://www.w3.org/2000/svg" viewBox="0 0 1600 900" preserveAspectRatio="xMidYMid slice">
  <defs>
    <linearGradient id="bg" x1="0" y1="0" x2="1" y2="1">
      <stop offset="0" stop-color="#0a1226"/>
      <stop offset="1" stop-color="#0d2044"/>
    </linearGradient>
  </defs>
  <rect width="1600" height="900" fill="url(#bg)"/>
  <circle cx="1250" cy="180" r="360" fill="#4da2ff" opacity="0.12"/>
  <rect x="90" y="90" width="330" height="720" rx="18" fill="#ffffff" opacity="0.05"/>
  <rect x="130" y="140" width="180" height="16" rx="8" fill="#4da2ff" opacity="0.8"/>
  <rect x="130" y="200" width="240" height="10" rx="5" fill="#ffffff" opacity="0.25"/>
  <rect x="130" y="230" width="200" height="10" rx="5" fill="#ffffff" opacity="0.18"/>
  <rect x="130" y="260" width="220" height="10" rx="5" fill="#ffffff" opacity="0.12"/>
  <rect x="470" y="90" width="1040" height="440" rx="18" fill="#ffffff" opacity="0.05"/>
  <polyline points="520,470 660,380 800,410 940,300 1080,340 1220,220 1380,260" fill="none" stroke="#4da2ff" stroke-width="5" stroke-linecap="round" stroke-linejoin="round"/>
  <circle cx="1220" cy="220" r="10" fill="#82beff"/>
  <rect x="470" y="570" width="500" height="240" rx="18" fill="#ffffff" opacity="0.05"/>
  <rect x="1010" y="570" width="500" height="240" rx="18" fill="#4da2ff" opacity="0.14"/>
  <text x="510" y="660" font-family="monospace" font-size="30" fill="#82beff" letter-spacing="8">ORBIT AI</text>
  <rect x="510" y="700" width="360" height="10" rx="5" fill="#ffffff" opacity="0.22"/>
  <rect x="510" y="730" width="300" height="10" rx="5" fill="#ffffff" opacity="0.14"/>
</svg>
