<svg xmlns="http://www.w3.org/2000/svg" viewBox="0 0 1600 900" preserveAspectRatio="xMidYMid slice">
  <defs>
    <linearGradient id="bg" x1="0" y1="0" x2="1" y2="1">
      <stop offset="0" stop-color="#08201c"/>
      <stop offset="1" stop-color="#0c3a30"/>
    </linearGradient>
  </defs>
  <rect width="1600" height="900" fill="url(#bg)"/>
  <circle cx="1350" cy="700" r="380" fill="#34d399" opacity="0.10"/>
  <rect x="90" y="90" width="700" height="720" rx="18" fill="#ffffff" opacity="0.05"/>
  <rect x="150" y="160" width="580" height="380" rx="14" fill="#34d399" opacity="0.13"/>
  <circle cx="440" cy="350" r="110" fill="#34d399" opacity="0.25"/>
  <rect x="150" y="590" width="300" height="18" rx="9" fill="#ffffff" opacity="0.35"/>
  <rect x="150" y="640" width="180" height="14" rx="7" fill="#6ee7b7" opacity="0.9"/>
  <rect x="150" y="700" width="220" height="48" rx="24" fill="#34d399" opacity="0.85"/>
  <rect x="850" y="90" width="660" height="220" rx="18" fill="#ffffff" opacity="0.05"/>
  <rect x="850" y="340" width="660" height="220" rx="18" fill="#ffffff" opacity="0.05"/>
  <rect x="850" y="590" width="660" height="220" rx="18" fill="#34d399" opacity="0.12"/>
  <rect x="910" y="150" width="140" height="100" rx="12" fill="#34d399" opacity="0.25"/>
  <rect x="910" y="400" width="140" height="100" rx="12" fill="#34d399" opacity="0.25"/>
  <rect x="1090" y="160" width="300" height="12" rx="6" fill="#ffffff" opacity="0.3"/>
  <rect x="1090" y="410" width="300" height="12" rx="6" fill="#ffffff" opacity="0.3"/>
  <rect x="1090" y="195" width="220" height="10" rx="5" fill="#ffffff" opacity="0.16"/>
  <rect x="1090" y="445" width="220" height="10" rx="5" fill="#ffffff" opacity="0.16"/>
  <text x="910" y="680" font-family="monospace" font-size="30" fill="#6ee7b7" letter-spacing="8">STORELY</text>
  <rect x="910" y="720" width="300" height="10" rx="5" fill="#ffffff" opacity="0.2"/>
</svg>
