<svg xmlns="http://www.w3.org/2000/svg" viewBox="0 0 1200 750" fill="none">
  <!-- WORK 03 — Cargoflow (logistics platform) placeholder. Replace with real screenshot. -->
  <rect width="1200" height="750" fill="#0a0a16"/>
  <rect width="1200" height="750" fill="url(#cf-glow)"/>
  <defs>
    <radialGradient id="cf-glow" cx="0.5" cy="0.9" r="1">
      <stop offset="0" stop-color="#a78bfa" stop-opacity="0.16"/>
      <stop offset="1" stop-color="#a78bfa" stop-opacity="0"/>
    </radialGradient>
  </defs>

  <!-- header -->
  <rect x="60" y="48" width="180" height="20" rx="6" fill="#a78bfa"/>
  <rect x="60" y="84" width="280" height="12" rx="6" fill="#ffffff" opacity="0.3"/>
  <rect x="980" y="48" width="160" height="40" rx="10" fill="#a78bfa" opacity="0.9"/>

  <!-- map panel with route -->
  <rect x="60" y="140" width="740" height="460" rx="16" fill="#10101f" stroke="#272741"/>
  <g stroke="#ffffff" stroke-opacity="0.05">
    <line x1="60" y1="240" x2="800" y2="240"/>
    <line x1="60" y1="340" x2="800" y2="340"/>
    <line x1="60" y1="440" x2="800" y2="440"/>
    <line x1="220" y1="140" x2="220" y2="600"/>
    <line x1="400" y1="140" x2="400" y2="600"/>
    <line x1="580" y1="140" x2="580" y2="600"/>
  </g>
  <path d="M140 500 C 260 420, 300 300, 430 300 S 640 240, 720 200" stroke="#a78bfa" stroke-width="3" stroke-dasharray="10 10" stroke-linecap="round"/>
  <circle cx="140" cy="500" r="10" fill="#a78bfa"/>
  <circle cx="140" cy="500" r="20" fill="#a78bfa" opacity="0.2"/>
  <circle cx="430" cy="300" r="8" fill="#ffffff" opacity="0.8"/>
  <circle cx="720" cy="200" r="10" fill="#62adff"/>
  <circle cx="720" cy="200" r="20" fill="#62adff" opacity="0.2"/>
  <!-- location tooltip -->
  <rect x="452" y="252" width="170" height="52" rx="10" fill="#1a1a30" stroke="#3a3a5c"/>
  <rect x="472" y="268" width="90" height="10" rx="5" fill="#ffffff" opacity="0.7"/>
  <rect x="472" y="286" width="120" height="8" rx="4" fill="#a78bfa" opacity="0.8"/>

  <!-- shipments column -->
  <rect x="832" y="140" width="308" height="460" rx="16" fill="#10101f" stroke="#272741"/>
  <rect x="862" y="176" width="150" height="16" rx="6" fill="#ffffff" opacity="0.8"/>
  <g>
    <rect x="862" y="222" width="248" height="80" rx="10" fill="#181830"/>
    <rect x="886" y="244" width="130" height="12" rx="6" fill="#ffffff" opacity="0.55"/>
    <rect x="886" y="270" width="90" height="9" rx="4" fill="#a78bfa" opacity="0.85"/>
    <rect x="862" y="318" width="248" height="80" rx="10" fill="#181830"/>
    <rect x="886" y="340" width="150" height="12" rx="6" fill="#ffffff" opacity="0.55"/>
    <rect x="886" y="366" width="70" height="9" rx="4" fill="#62adff" opacity="0.85"/>
    <rect x="862" y="414" width="248" height="80" rx="10" fill="#181830"/>
    <rect x="886" y="436" width="110" height="12" rx="6" fill="#ffffff" opacity="0.55"/>
    <rect x="886" y="462" width="100" height="9" rx="4" fill="#ffffff" opacity="0.3"/>
    <rect x="862" y="510" width="248" height="60" rx="10" fill="#181830"/>
    <rect x="886" y="530" width="140" height="12" rx="6" fill="#ffffff" opacity="0.55"/>
  </g>

  <!-- bottom stat tiles -->
  <g>
    <rect x="60" y="632" width="255" height="78" rx="12" fill="#10101f" stroke="#272741"/>
    <rect x="88" y="656" width="70" height="9" rx="4" fill="#ffffff" opacity="0.3"/>
    <rect x="88" y="676" width="110" height="18" rx="5" fill="#ffffff" opacity="0.85"/>
    <rect x="335" y="632" width="255" height="78" rx="12" fill="#10101f" stroke="#272741"/>
    <rect x="363" y="656" width="70" height="9" rx="4" fill="#ffffff" opacity="0.3"/>
    <rect x="363" y="676" width="90" height="18" rx="5" fill="#a78bfa" opacity="0.9"/>
    <rect x="610" y="632" width="255" height="78" rx="12" fill="#10101f" stroke="#272741"/>
    <rect x="638" y="656" width="70" height="9" rx="4" fill="#ffffff" opacity="0.3"/>
    <rect x="638" y="676" width="120" height="18" rx="5" fill="#ffffff" opacity="0.85"/>
    <rect x="885" y="632" width="255" height="78" rx="12" fill="#10101f" stroke="#272741"/>
    <rect x="913" y="656" width="70" height="9" rx="4" fill="#ffffff" opacity="0.3"/>
    <rect x="913" y="676" width="100" height="18" rx="5" fill="#62adff" opacity="0.9"/>
  </g>
</svg>
