<svg xmlns="http://www.w3.org/2000/svg" viewBox="0 0 1200 750" fill="none">
  <!-- WORK 02 — Novacare (healthcare platform) placeholder. Replace with real screenshot. -->
  <rect width="1200" height="750" fill="#081018"/>
  <rect width="1200" height="750" fill="url(#nc-glow)"/>
  <defs>
    <radialGradient id="nc-glow" cx="0.8" cy="0.12" r="0.9">
      <stop offset="0" stop-color="#35d3c0" stop-opacity="0.15"/>
      <stop offset="1" stop-color="#35d3c0" stop-opacity="0"/>
    </radialGradient>
    <linearGradient id="nc-pulse" x1="0" y1="0" x2="1" y2="0">
      <stop offset="0" stop-color="#35d3c0" stop-opacity="0.2"/>
      <stop offset="1" stop-color="#35d3c0"/>
    </linearGradient>
  </defs>

  <!-- top nav -->
  <rect x="0" y="0" width="1200" height="84" fill="#0b1520"/>
  <circle cx="72" cy="42" r="18" fill="#35d3c0"/>
  <rect x="108" y="34" width="120" height="16" rx="5" fill="#ffffff" opacity="0.85"/>
  <g fill="#ffffff" opacity="0.25">
    <rect x="700" y="36" width="70" height="12" rx="6"/>
    <rect x="800" y="36" width="70" height="12" rx="6"/>
    <rect x="900" y="36" width="70" height="12" rx="6"/>
  </g>
  <rect x="1030" y="24" width="130" height="36" rx="18" fill="#35d3c0"/>

  <!-- hero card: patient overview -->
  <rect x="60" y="132" width="700" height="300" rx="16" fill="#0d1a26" stroke="#1c3243"/>
  <circle cx="150" cy="222" r="44" fill="#35d3c0" opacity="0.25"/>
  <circle cx="150" cy="222" r="44" stroke="#35d3c0" stroke-width="2"/>
  <rect x="224" y="188" width="220" height="20" rx="6" fill="#ffffff" opacity="0.85"/>
  <rect x="224" y="224" width="160" height="12" rx="6" fill="#ffffff" opacity="0.3"/>
  <rect x="224" y="252" width="190" height="12" rx="6" fill="#ffffff" opacity="0.2"/>

  <!-- vitals pulse line -->
  <path d="M92 358 H240 L268 322 L296 392 L324 340 L352 358 H500 L528 330 L556 380 L584 358 H728" stroke="url(#nc-pulse)" stroke-width="3" stroke-linecap="round"/>
  <circle cx="728" cy="358" r="6" fill="#35d3c0"/>

  <!-- side appointments column -->
  <rect x="792" y="132" width="348" height="486" rx="16" fill="#0d1a26" stroke="#1c3243"/>
  <rect x="824" y="168" width="160" height="16" rx="6" fill="#ffffff" opacity="0.8"/>
  <g>
    <rect x="824" y="216" width="284" height="72" rx="10" fill="#12222f"/>
    <rect x="848" y="238" width="150" height="12" rx="6" fill="#ffffff" opacity="0.5"/>
    <rect x="848" y="262" width="100" height="10" rx="5" fill="#35d3c0" opacity="0.8"/>
    <rect x="824" y="304" width="284" height="72" rx="10" fill="#12222f"/>
    <rect x="848" y="326" width="170" height="12" rx="6" fill="#ffffff" opacity="0.5"/>
    <rect x="848" y="350" width="90" height="10" rx="5" fill="#ffffff" opacity="0.25"/>
    <rect x="824" y="392" width="284" height="72" rx="10" fill="#12222f"/>
    <rect x="848" y="414" width="130" height="12" rx="6" fill="#ffffff" opacity="0.5"/>
    <rect x="848" y="438" width="120" height="10" rx="5" fill="#ffffff" opacity="0.25"/>
    <rect x="824" y="480" width="284" height="72" rx="10" fill="#12222f"/>
    <rect x="848" y="502" width="160" height="12" rx="6" fill="#ffffff" opacity="0.5"/>
    <rect x="848" y="526" width="80" height="10" rx="5" fill="#35d3c0" opacity="0.8"/>
  </g>

  <!-- metric tiles -->
  <g>
    <rect x="60" y="464" width="220" height="154" rx="16" fill="#0d1a26" stroke="#1c3243"/>
    <rect x="88" y="496" width="80" height="10" rx="5" fill="#ffffff" opacity="0.3"/>
    <rect x="88" y="524" width="120" height="26" rx="6" fill="#35d3c0" opacity="0.9"/>
    <rect x="300" y="464" width="220" height="154" rx="16" fill="#0d1a26" stroke="#1c3243"/>
    <rect x="328" y="496" width="80" height="10" rx="5" fill="#ffffff" opacity="0.3"/>
    <rect x="328" y="524" width="100" height="26" rx="6" fill="#ffffff" opacity="0.85"/>
    <rect x="540" y="464" width="220" height="154" rx="16" fill="#0d1a26" stroke="#1c3243"/>
    <rect x="568" y="496" width="80" height="10" rx="5" fill="#ffffff" opacity="0.3"/>
    <rect x="568" y="524" width="110" height="26" rx="6" fill="#ffffff" opacity="0.85"/>
  </g>

  <!-- bottom strip -->
  <rect x="60" y="654" width="1080" height="56" rx="12" fill="#0b1520"/>
  <rect x="92" y="676" width="260" height="12" rx="6" fill="#ffffff" opacity="0.25"/>
  <rect x="1016" y="670" width="92" height="24" rx="12" fill="#35d3c0" opacity="0.8"/>
</svg>
